# xmcd
#
# Track frame offsets:
#	183
#	24473
#	37168
#	49428
#	64070
#	78760
#	99983
#	110853
#	121433
#	134973
#	147370
#	165988
#	175638
#	185225
#	197763
#	212593
#	222193
#	233185
#	244723
#
# Disc length: 3448 seconds
#
# Revision: 3
# Processed by: cddbd v1.5.2PL0 Copyright (c) Steve Scherf et al.
# Submitted via: EasyCDDAExtractor 12.0.1.1
#
DISCID=1e0d7613
DTITLE=Various Artist - Vol 1
DYEAR=1900
DGENRE=Dance
TTITLE0=Osvaldo Farres - RB 26 - Come Closer To Me (inst)
TTITLE1=Traditional - RB 25 - Cuando Llego el Verano
TTITLE2=Nico Gomez - RB 27 - Martha, O Martha
TTITLE3=Gilbert, Wolcott - RB 26 - Two Silhouettes
TTITLE4=Gonzalez Roig - RB 26 - Quere Me Mucho
TTITLE5=Rosendo Ruiz jr - CC 30 - Rico Vacilon (inst)
TTITLE6=Traditional - CC 29 - Babalu
TTITLE7=Traditional - CC 31 - Por Favor
TTITLE8=Nico Gomez - CC 30 - El Cucarachacha
TTITLE9=Jupp - CC 30 - Gipsy
TTITLE10=Leonora - SB 49 - Baila Me Samba (inst)
TTITLE11=Traditional - SB 49 - South America
TTITLE12=Traditional - SB 50 - Take It Away
TTITLE13=Al Verlane - SB 50 - Takatakata
TTITLE14=Carvalinho, J. Monteiro - SB 50 - Madureira Chorou
TTITLE15=P. Marquina - PD 59 - Espana Cani
TTITLE16=Monreal - PD 63 - Ay Mi Sombrero
TTITLE17=Traditional - JV 41 - Hello Beautiful
TTITLE18=Count Basie - JV 42 - Jumping At The Woodside
EXTD=
EXTT0=
EXTT1=
EXTT2=
EXTT3=
EXTT4=
EXTT5=
EXTT6=
EXTT7=
EXTT8=
EXTT9=
EXTT10=
EXTT11=
EXTT12=
EXTT13=
EXTT14=
EXTT15=
EXTT16=
EXTT17=
EXTT18=
PLAYORDER=
